<?xml version="1.0" encoding="utf-8"?>
<!-- Generator: Adobe Illustrator 15.1.0, SVG Export Plug-In . SVG Version: 6.00 Build 0)  -->
<!DOCTYPE svg PUBLIC "-//W3C//DTD SVG 1.1//EN" "http://www.w3.org/Graphics/SVG/1.1/DTD/svg11.dtd">
<svg version="1.1" id="Layer_1" xmlns="http://www.w3.org/2000/svg" xmlns:xlink="http://www.w3.org/1999/xlink" x="0px" y="0px"
	 width="88.2px" height="53.7px" viewBox="0 0 88.2 53.7" enable-background="new 0 0 88.2 53.7" xml:space="preserve">
<g>
	<defs>
		<rect id="SVGID_1_" width="88.2" height="53.7"/>
	</defs>
	<clipPath id="SVGID_2_">
		<use xlink:href="#SVGID_1_"  overflow="visible"/>
	</clipPath>
	<path clip-path="url(#SVGID_2_)" d="M58.3,48.7h-22c-0.8,0-1.5,0.7-1.5,1.5s0.7,1.5,1.5,1.5h22c0.8,0,1.5-0.7,1.5-1.5
		S59.1,48.7,58.3,48.7"/>
	<path clip-path="url(#SVGID_2_)" d="M84.801,31.101h-2.7v-22.5c0-4.5-3.6-8.1-8.102-8.1H20.5c-4.5,0-8.1,3.6-8.1,8.1v6.3H5.3
		c-2.7,0-4.801,2.2-4.801,4.8v28.7c0,2.7,2.2,4.8,4.801,4.8H21.5c2.7,0,4.801-2.2,4.801-4.8v-1.5h47.699v2.8
		c0,1.7,1.302,3.101,2.901,3.101h7.9c1.6,0,2.899-1.4,2.899-3.101v-15.6C87.601,32.4,86.301,31.101,84.801,31.101 M15.101,51.2
		c-0.201,0.4-0.5,0.7-1,0.7H12c-0.399,0-0.8-0.3-0.899-0.7c0-0.1-0.101-0.2-0.101-0.3c0-0.6,0.4-1,1-1h2.101c0.599,0,1,0.4,1,1V51.2
		z M24.3,44.9v2v1.5H2.4V19.7c0-1.6,1.299-2.8,2.799-2.8H12.3h2h7c1.6,0,2.8,1.3,2.8,2.8v25.2H24.3z M73.999,34.101v10.8H26.3V19.7
		c0-2.7-2.2-4.8-4.801-4.8h-7V8.7c0-3.4,2.701-6.1,6.101-6.1h53.5c3.398,0,6.099,2.7,6.099,6.1v22.4h-3.3
		C75.301,31.101,73.999,32.4,73.999,34.101 M81.501,51.575c-0.101,0.101-0.2,0.2-0.4,0.2h-0.5c-0.2,0-0.3-0.1-0.401-0.2
		c0-0.1-0.099-0.2-0.099-0.3c0-0.3,0.2-0.5,0.5-0.5h0.5c0.3,0,0.5,0.2,0.5,0.5C81.601,51.375,81.501,51.476,81.501,51.575
		 M86.313,49.725H75.287v-2.297v-2.412v-11.14h4.709h2.297h4.02V49.725z"/>
	<path clip-path="url(#SVGID_2_)" fill="none" stroke="#000000" stroke-miterlimit="10" d="M84.801,31.101h-2.7v-22.5
		c0-4.5-3.6-8.1-8.102-8.1H20.5c-4.5,0-8.1,3.6-8.1,8.1v6.3H5.3c-2.7,0-4.801,2.2-4.801,4.8v28.7c0,2.7,2.2,4.8,4.801,4.8H21.5
		c2.7,0,4.801-2.2,4.801-4.8v-1.5h47.699v2.8c0,1.7,1.302,3.101,2.901,3.101h7.9c1.6,0,2.899-1.4,2.899-3.101v-15.6
		C87.601,32.4,86.301,31.101,84.801,31.101z M15.101,51.2c-0.201,0.4-0.5,0.7-1,0.7H12c-0.399,0-0.8-0.3-0.899-0.7
		c0-0.1-0.101-0.2-0.101-0.3c0-0.6,0.4-1,1-1h2.101c0.599,0,1,0.4,1,1V51.2z M24.3,44.9v2v1.5H2.4V19.7c0-1.6,1.299-2.8,2.799-2.8
		H12.3h2h7c1.6,0,2.8,1.3,2.8,2.8v25.2H24.3z M73.999,34.101v10.8H26.3V19.7c0-2.7-2.2-4.8-4.801-4.8h-7V8.7
		c0-3.4,2.701-6.1,6.101-6.1h53.5c3.398,0,6.099,2.7,6.099,6.1v22.4h-3.3C75.301,31.101,73.999,32.4,73.999,34.101z M81.501,51.575
		c-0.101,0.101-0.2,0.2-0.4,0.2h-0.5c-0.2,0-0.3-0.1-0.401-0.2c0-0.1-0.099-0.2-0.099-0.3c0-0.3,0.2-0.5,0.5-0.5h0.5
		c0.3,0,0.5,0.2,0.5,0.5C81.601,51.375,81.501,51.476,81.501,51.575z M86.313,49.725H75.287v-2.297v-2.412v-11.14h4.709h2.297h4.02
		V49.725z"/>
</g>
</svg>
