<?xml version="1.0" encoding="utf-8"?>
<!-- Generator: Adobe Illustrator 15.1.0, SVG Export Plug-In . SVG Version: 6.00 Build 0)  -->
<!DOCTYPE svg PUBLIC "-//W3C//DTD SVG 1.1//EN" "http://www.w3.org/Graphics/SVG/1.1/DTD/svg11.dtd">
<svg version="1.1" id="Layer_1" xmlns="http://www.w3.org/2000/svg" xmlns:xlink="http://www.w3.org/1999/xlink" x="0px" y="0px"
	 width="59.744px" height="89.999px" viewBox="0 0 59.744 89.999" enable-background="new 0 0 59.744 89.999" xml:space="preserve">
<g>
	<defs>
		<rect id="SVGID_1_" width="59.744" height="89.999"/>
	</defs>
	<clipPath id="SVGID_2_">
		<use xlink:href="#SVGID_1_"  overflow="visible"/>
	</clipPath>
	<path clip-path="url(#SVGID_2_)" d="M41.931,75.381v2.013c0,0.338-0.273,0.611-0.611,0.611H3.741c-0.338,0-0.611-0.273-0.611-0.611
		V10.693c0-0.337,0.273-0.611,0.611-0.611h37.579c0.338,0,0.611,0.274,0.611,0.611V54.73c0.197-0.119,0.419-0.187,0.653-0.155
		c0.967,0.128,1.938-0.069,2.869-0.352V12.64C45.452,1.164,40.925,1.258,34.977,0.45C31.572-0.006,23.028,0,23.028,0h-0.598
		c0,0-8.552-0.006-11.949,0.45C4.542,1.258,0,1.163,0,12.64v67.834c0,5.748,4.841,9.524,11.216,9.524h11.217h0.597h11.216
		c6.372,0,11.208-3.776,11.208-9.524v-3.917C44.287,76.565,43.034,75.979,41.931,75.381 M18.197,2.87h8.565
		c0.303,0,0.553,0.246,0.553,0.558c0,0.299-0.25,0.552-0.553,0.552h-8.565c-0.307,0-0.557-0.253-0.557-0.552
		C17.641,3.116,17.891,2.87,18.197,2.87 M26.356,87.029H18.5c-0.478,0-0.859-0.391-0.859-0.855v-0.605
		c0-0.81,0.655-1.464,1.463-1.464h7.253c0.804,0,1.463,0.657,1.463,1.463C27.818,86.371,27.161,87.029,26.356,87.029"/>
	<path clip-path="url(#SVGID_2_)" d="M43.293,59.095l-0.861,1.189h2.416c0.25,0.011,1.994,0.125,2.617,1.307h-4.188l-0.863,1.19
		h5.263c-0.001,0.022-0.002,0.042-0.005,0.064c0,0-0.024,2.605-4.771,2.153v0.563l0.006,0.611l5.117,5.571h1.949v-0.248
		l-4.911-5.526v-0.078c0,0,3.865,0.057,4.505-3.092c0,0,0-0.006,0.002-0.02h1.623l0.861-1.19H49.5
		c-0.097-0.435-0.292-0.916-0.678-1.307h2.391l0.861-1.189H43.293z"/>
	
		<circle clip-path="url(#SVGID_2_)" fill="none" stroke="#000000" stroke-width="2" stroke-miterlimit="10" cx="47.244" cy="65.42" r="11.5"/>
</g>
</svg>
