<?xml version="1.0" encoding="utf-8"?>
<!-- Generator: Adobe Illustrator 15.1.0, SVG Export Plug-In . SVG Version: 6.00 Build 0)  -->
<!DOCTYPE svg PUBLIC "-//W3C//DTD SVG 1.1//EN" "http://www.w3.org/Graphics/SVG/1.1/DTD/svg11.dtd">
<svg version="1.1" id="Layer_1" xmlns="http://www.w3.org/2000/svg" xmlns:xlink="http://www.w3.org/1999/xlink" x="0px" y="0px"
	 width="90.769px" height="91px" viewBox="0 0 90.769 91" enable-background="new 0 0 90.769 91" xml:space="preserve">
<g>
	<defs>
		<rect id="SVGID_1_" width="90.768" height="91"/>
	</defs>
	<clipPath id="SVGID_2_">
		<use xlink:href="#SVGID_1_"  overflow="visible"/>
	</clipPath>
	<path clip-path="url(#SVGID_2_)" d="M66.64,0.5c-13.029,0-23.63,8.666-23.63,19.318c0,3.276,1.019,6.511,2.944,9.354
		c0,0.002,0.003,0.004,0.005,0.006c1.452,2.142,4.335,4.487,4.458,4.587c0.25,0.202,0.509,0.798,0.484,1.118
		c-0.002,0.014-0.102,1.338-0.375,2.615V37.5c-0.844,3.931-1.72,5.796-1.726,5.811c-0.702,1.449-0.11,2.327,0.175,2.638
		c0.203,0.22,0.682,0.615,1.479,0.615c0.324,0,0.701-0.064,1.136-0.233c0.112-0.045,2.841-1.122,7.307-4.09
		c0.002-0.001,0.002-0.001,0.004-0.002c1.649-1.098,3.519-2.717,3.598-2.786c0.3-0.26,1.031-0.495,1.427-0.449
		c0.05,0.005,1.254,0.129,2.715,0.129c13.028,0,23.629-8.664,23.629-19.314C90.269,9.166,79.668,0.5,66.64,0.5 M66.64,36.229
		c-1.301,0-2.402-0.112-2.413-0.114c-1.202-0.123-2.725,0.359-3.632,1.146c-0.021,0.017-1.806,1.564-3.303,2.562
		c-0.001,0.001-0.002,0.002-0.005,0.003c-2.268,1.506-4.059,2.495-5.223,3.086c0.364-1.065,0.84-2.654,1.301-4.802v-0.002
		c0.315-1.479,0.426-2.95,0.432-3.013c0.093-1.274-0.563-2.783-1.555-3.585c-0.024-0.022-2.674-2.179-3.883-3.962
		c-0.002-0.001-0.002-0.003-0.002-0.004c-1.601-2.36-2.445-5.031-2.445-7.726c0-9.051,9.299-16.415,20.728-16.415
		c11.428,0,20.727,7.364,20.727,16.415C87.363,28.868,78.067,36.229,66.64,36.229"/>
	<path clip-path="url(#SVGID_2_)" fill="none" stroke="#000000" stroke-miterlimit="10" d="M66.64,0.5
		c-13.029,0-23.63,8.666-23.63,19.318c0,3.276,1.019,6.511,2.944,9.354c0,0.002,0.003,0.004,0.005,0.006
		c1.452,2.142,4.335,4.487,4.458,4.587c0.25,0.202,0.509,0.798,0.484,1.118c-0.002,0.014-0.102,1.338-0.375,2.615V37.5
		c-0.844,3.931-1.72,5.796-1.726,5.811c-0.702,1.449-0.11,2.327,0.175,2.638c0.203,0.22,0.682,0.615,1.479,0.615
		c0.324,0,0.701-0.064,1.136-0.233c0.112-0.045,2.841-1.122,7.307-4.09c0.002-0.001,0.002-0.001,0.004-0.002
		c1.649-1.098,3.519-2.717,3.598-2.786c0.3-0.26,1.031-0.495,1.427-0.449c0.05,0.005,1.254,0.129,2.715,0.129
		c13.028,0,23.629-8.664,23.629-19.314C90.269,9.166,79.668,0.5,66.64,0.5z M66.64,36.229c-1.301,0-2.402-0.112-2.413-0.114
		c-1.202-0.123-2.725,0.359-3.632,1.146c-0.021,0.017-1.806,1.564-3.303,2.562c-0.001,0.001-0.002,0.002-0.005,0.003
		c-2.268,1.506-4.059,2.495-5.223,3.086c0.364-1.065,0.84-2.654,1.301-4.802v-0.002c0.315-1.479,0.426-2.95,0.432-3.013
		c0.093-1.274-0.563-2.783-1.555-3.585c-0.024-0.022-2.674-2.179-3.883-3.962c-0.002-0.001-0.002-0.003-0.002-0.004
		c-1.601-2.36-2.445-5.031-2.445-7.726c0-9.051,9.299-16.415,20.728-16.415c11.428,0,20.727,7.364,20.727,16.415
		C87.363,28.868,78.067,36.229,66.64,36.229z"/>
	<path clip-path="url(#SVGID_2_)" d="M9.461,90.5h35.715c2.457,0,4.741-0.964,6.436-2.715c1.692-1.752,2.578-4.067,2.494-6.523
		c-0.004-0.114-0.104-2.862-0.875-6.041l-0.393-1.396c-2.013-6.546-6.046-8.566-11.859-11.452l-1.114-0.569
		c1.614-2.402,2.56-5.294,2.56-8.398c0-8.328-6.776-15.104-15.104-15.104c-8.329,0-15.105,6.776-15.105,15.104
		c0,3.104,0.944,5.996,2.56,8.398l-1.116,0.57C7.568,65.395,3.425,67.459,1.524,74.784l-0.04-0.01l-0.291,1.421
		c-0.623,3.069-0.688,4.989-0.689,5.069c-0.075,2.454,0.82,4.771,2.518,6.521C4.719,89.536,7.006,90.5,9.461,90.5 M27.32,41.199
		c6.728,0,12.201,5.474,12.201,12.201c0,6.729-5.474,12.2-12.201,12.2c-6.729,0-12.202-5.474-12.202-12.2
		C15.117,46.673,20.591,41.199,27.32,41.199 M14.948,64.971l1.714-0.877c2.733,2.726,6.501,4.412,10.657,4.412
		c4.154,0,7.921-1.688,10.655-4.411l1.713,0.876c6.305,3.131,9.469,4.7,10.913,11.806h0.002c0.521,2.5,0.602,4.563,0.602,4.586
		c0.059,1.66-0.539,3.227-1.68,4.405c-1.142,1.179-2.688,1.83-4.349,1.83H9.461c-1.663,0-3.21-0.649-4.356-1.832
		s-1.75-2.748-1.7-4.409c0.001-0.018,0.064-1.776,0.633-4.58l0.002-0.011C5.481,69.67,8.646,68.1,14.948,64.971"/>
	<path clip-path="url(#SVGID_2_)" fill="none" stroke="#000000" stroke-miterlimit="10" d="M9.461,90.5h35.715
		c2.457,0,4.741-0.964,6.436-2.715c1.692-1.752,2.578-4.067,2.494-6.523c-0.004-0.114-0.104-2.862-0.875-6.041l-0.393-1.396
		c-2.013-6.546-6.046-8.566-11.859-11.452l-1.114-0.569c1.614-2.402,2.56-5.294,2.56-8.398c0-8.328-6.776-15.104-15.104-15.104
		c-8.329,0-15.105,6.776-15.105,15.104c0,3.104,0.944,5.996,2.56,8.398l-1.116,0.57C7.568,65.395,3.425,67.459,1.524,74.784
		l-0.04-0.01l-0.291,1.421c-0.623,3.069-0.688,4.989-0.689,5.069c-0.075,2.454,0.82,4.771,2.518,6.521
		C4.719,89.536,7.006,90.5,9.461,90.5z M27.32,41.199c6.728,0,12.201,5.474,12.201,12.201c0,6.729-5.474,12.2-12.201,12.2
		c-6.729,0-12.202-5.474-12.202-12.2C15.117,46.673,20.591,41.199,27.32,41.199z M14.948,64.971l1.714-0.877
		c2.733,2.726,6.501,4.412,10.657,4.412c4.154,0,7.921-1.688,10.655-4.411l1.713,0.876c6.305,3.131,9.469,4.7,10.913,11.806h0.002
		c0.521,2.5,0.602,4.563,0.602,4.586c0.059,1.66-0.539,3.227-1.68,4.405c-1.142,1.179-2.688,1.83-4.349,1.83H9.461
		c-1.663,0-3.21-0.649-4.356-1.832s-1.75-2.748-1.7-4.409c0.001-0.018,0.064-1.776,0.633-4.58l0.002-0.011
		C5.481,69.67,8.646,68.1,14.948,64.971z"/>
</g>
</svg>
