<?xml version="1.0" encoding="utf-8"?>
<!-- Generator: Adobe Illustrator 15.1.0, SVG Export Plug-In . SVG Version: 6.00 Build 0)  -->
<!DOCTYPE svg PUBLIC "-//W3C//DTD SVG 1.1//EN" "http://www.w3.org/Graphics/SVG/1.1/DTD/svg11.dtd">
<svg version="1.1" id="Layer_1" xmlns="http://www.w3.org/2000/svg" xmlns:xlink="http://www.w3.org/1999/xlink" x="0px" y="0px"
	 width="66.886px" height="74.025px" viewBox="0 0 66.886 74.025" enable-background="new 0 0 66.886 74.025" xml:space="preserve">
<g>
	<defs>
		<rect id="SVGID_1_" width="66.886" height="74.025"/>
	</defs>
	<clipPath id="SVGID_2_">
		<use xlink:href="#SVGID_1_"  overflow="visible"/>
	</clipPath>
	<path clip-path="url(#SVGID_2_)" fill="none" stroke="#000000" stroke-width="3" stroke-miterlimit="10" d="M62.343,14.35
		c-14.5-2.1-22.6-8.1-26.3-11.8c-1.4-1.4-3.7-1.4-5.2,0c-3.7,3.7-11.8,9.6-26.3,11.8c-2,0.3-3.3,2.1-3,4c2,10.9,9.7,43.7,30.2,53.8
		c1.1,0.5,2.3,0.5,3.399,0c20.4-10.1,28.101-42.9,30.2-53.8C65.643,16.45,64.343,14.65,62.343,14.35z"/>
	<path clip-path="url(#SVGID_2_)" d="M53.243,21.55c-9.9-1.5-15.5-5.6-18-8.1c-0.4-0.3-0.8-0.6-1.3-0.7
		c-0.301-0.1-0.601,0.2-0.601,0.5v47.3c0,0.3,0.3,0.6,0.601,0.6c0.199,0,0.5-0.1,0.699-0.2c14-6.899,19.2-29.3,20.601-36.8
		C55.443,23.05,54.543,21.75,53.243,21.55"/>
</g>
</svg>
