<?xml version="1.0" encoding="utf-8"?>
<!-- Generator: Adobe Illustrator 15.1.0, SVG Export Plug-In . SVG Version: 6.00 Build 0)  -->
<!DOCTYPE svg PUBLIC "-//W3C//DTD SVG 1.1//EN" "http://www.w3.org/Graphics/SVG/1.1/DTD/svg11.dtd">
<svg version="1.1" id="Layer_1" xmlns="http://www.w3.org/2000/svg" xmlns:xlink="http://www.w3.org/1999/xlink" x="0px" y="0px"
	 width="82.175px" height="90px" viewBox="0 0 82.175 90" enable-background="new 0 0 82.175 90" xml:space="preserve">
<g>
	<defs>
		<rect id="SVGID_1_" width="82.175" height="90"/>
	</defs>
	<clipPath id="SVGID_2_">
		<use xlink:href="#SVGID_1_"  overflow="visible"/>
	</clipPath>
	<path clip-path="url(#SVGID_2_)" fill="#7F7F7F" d="M70.1,42.7L32.7,79.7c-3,3-7,4.6-11.2,4.6s-8.2-1.6-11.2-4.6
		c-6.2-6.2-6.2-16.2,0-22.4L56.1,9.2C58.4,6.9,61.4,5.7,64.5,5.7s6.2,1.2,8.4,3.5c4.699,4.7,4.699,12.2,0,16.9L31.7,66.9
		c-1.1,1.1-2.7,1.8-4.3,1.8s-3.1-0.601-4.3-1.8C22,65.8,21.3,64.2,21.3,62.6c0-1.6,0.6-3.1,1.8-4.3l31.5-31.1l-4-4L19.1,54.3
		c-4.6,4.601-4.6,12,0,16.601c2.3,2.3,5.3,3.399,8.3,3.399s6-1.1,8.3-3.399L77,30.1c6.9-6.9,6.9-18,0-24.9C73.6,1.7,69.1,0,64.6,0
		s-9,1.7-12.5,5.2L6.3,53.3c-8.4,8.4-8.4,22,0,30.4C10.5,87.9,16,90,21.5,90s11-2.1,15.2-6.3l37.399-37L70.1,42.7z"/>
</g>
</svg>
