<?xml version="1.0" encoding="utf-8"?>
<!-- Generator: Adobe Illustrator 15.1.0, SVG Export Plug-In . SVG Version: 6.00 Build 0)  -->
<!DOCTYPE svg PUBLIC "-//W3C//DTD SVG 1.1//EN" "http://www.w3.org/Graphics/SVG/1.1/DTD/svg11.dtd">
<svg version="1.1" id="Layer_1" xmlns="http://www.w3.org/2000/svg" xmlns:xlink="http://www.w3.org/1999/xlink" x="0px" y="0px"
	 width="66.184px" height="66.179px" viewBox="0 0 66.184 66.179" enable-background="new 0 0 66.184 66.179" xml:space="preserve">
<g>
	<defs>
		<rect id="SVGID_1_" width="66.183" height="66.179"/>
	</defs>
	<clipPath id="SVGID_2_">
		<use xlink:href="#SVGID_1_"  overflow="visible"/>
	</clipPath>
	<path clip-path="url(#SVGID_2_)" fill="none" stroke="#404040" stroke-width="4" stroke-miterlimit="10" d="M14.758,42.75
		c6.3,7.5,13.8,13.4,22.6,17.7c4,1.9,8.1,3.4,12.5,3.7c3.1,0.2,5.8-0.601,7.899-3c1.5-1.601,3.101-3.101,4.7-4.7
		c2.3-2.3,2.3-5.1,0-7.4c-2.7-2.699-5.5-5.5-8.2-8.199c-2.199-2.2-5.1-2.2-7.3,0c-1.7,1.699-3.399,3.399-5.1,5.1
		c-0.5,0.5-0.8,0.6-1.4,0.3c-1.1-0.6-2.3-1.1-3.3-1.8c-5-3.1-9.1-7.1-12.8-11.6c-1.8-2.2-3.5-4.6-4.6-7.3c-0.2-0.5-0.2-0.9,0.3-1.3
		c1.7-1.7,3.4-3.3,5.1-5c2.3-2.4,2.3-5.1,0-7.5l-4-4c-1.4-1.4-2.7-2.8-4.1-4.1c-2.3-2.2-5.1-2.2-7.3,0c-1.7,1.7-3.4,3.4-5.1,5.1
		c-1.6,1.5-2.5,3.4-2.6,5.6c-0.3,3.6,0.6,6.9,1.8,10.2C6.258,31.15,10.158,37.25,14.758,42.75z"/>
</g>
</svg>
