<?xml version="1.0" encoding="utf-8"?>
<!-- Generator: Adobe Illustrator 15.1.0, SVG Export Plug-In . SVG Version: 6.00 Build 0)  -->
<!DOCTYPE svg PUBLIC "-//W3C//DTD SVG 1.1//EN" "http://www.w3.org/Graphics/SVG/1.1/DTD/svg11.dtd">
<svg version="1.1" id="Layer_1" xmlns="http://www.w3.org/2000/svg" xmlns:xlink="http://www.w3.org/1999/xlink" x="0px" y="0px"
	 width="16.798px" height="16.771px" viewBox="0 0 16.798 16.771" enable-background="new 0 0 16.798 16.771" xml:space="preserve">
<g>
	<defs>
		<rect id="SVGID_1_" y="0" width="16.797" height="16.771"/>
	</defs>
	<clipPath id="SVGID_2_">
		<use xlink:href="#SVGID_1_"  overflow="visible"/>
	</clipPath>
	<path clip-path="url(#SVGID_2_)" fill="#6A6A6A" d="M15.599,16.771c-0.317,0-0.623-0.127-0.849-0.353L0.351,2.019
		c-0.452-0.485-0.425-1.245,0.06-1.696c0.46-0.43,1.175-0.43,1.636,0l14.4,14.399c0.467,0.469,0.467,1.229-0.001,1.697
		C16.221,16.644,15.916,16.771,15.599,16.771"/>
	<path clip-path="url(#SVGID_2_)" fill="#6A6A6A" d="M1.199,16.771C0.536,16.77,0,16.231,0,15.569
		C0,15.251,0.126,14.946,0.351,14.722l14.4-14.399c0.484-0.452,1.244-0.426,1.695,0.059c0.431,0.461,0.431,1.176,0,1.637
		L2.047,16.418C1.823,16.644,1.517,16.771,1.199,16.771"/>
</g>
</svg>
