<?xml version="1.0" encoding="utf-8"?>
<!-- Generator: Adobe Illustrator 15.1.0, SVG Export Plug-In . SVG Version: 6.00 Build 0)  -->
<!DOCTYPE svg PUBLIC "-//W3C//DTD SVG 1.1//EN" "http://www.w3.org/Graphics/SVG/1.1/DTD/svg11.dtd">
<svg version="1.1" id="Capa_1" xmlns="http://www.w3.org/2000/svg" xmlns:xlink="http://www.w3.org/1999/xlink" x="0px" y="0px"
	 width="595.279px" height="841.891px" viewBox="0 0 595.279 841.891" enable-background="new 0 0 595.279 841.891"
	 xml:space="preserve">
<g>
	<path d="M119.056,291.968h148.82c5.486,0,9.921-4.445,9.921-9.921s-4.435-9.921-9.921-9.921h-148.82
		c-5.486,0-9.921,4.445-9.921,9.921S113.57,291.968,119.056,291.968z"/>
	<path d="M456.381,351.496H119.056c-5.486,0-9.921,4.445-9.921,9.921s4.435,9.921,9.921,9.921h337.325
		c5.486,0,9.922-4.445,9.922-9.921S461.867,351.496,456.381,351.496z"/>
	<path d="M456.381,430.866H119.056c-5.486,0-9.921,4.445-9.921,9.922s4.435,9.921,9.921,9.921h337.325
		c5.486,0,9.922-4.444,9.922-9.921S461.867,430.866,456.381,430.866z"/>
	<path d="M535.752,143.147H59.528C27.264,143.147,0,170.412,0,202.676V530.08c0,32.264,27.264,59.527,59.527,59.527h79.371v99.214
		c0,4.098,2.521,7.778,6.35,9.257c1.161,0.446,2.371,0.664,3.571,0.664c2.739,0,5.428-1.141,7.342-3.244l96.257-105.891h283.334
		c32.264,0,59.527-27.264,59.527-59.527V202.676C595.28,170.412,568.016,143.147,535.752,143.147z M575.438,530.08
		c0,21.509-18.176,39.686-39.686,39.686H269.652l35.509-41.283c3.571-4.147,3.105-10.417-1.042-13.989
		c-4.156-3.552-10.417-3.096-13.988,1.052l-49.429,57.465l0,0l-81.96,90.155v-83.479c0-5.477-4.435-9.921-9.922-9.921H59.528
		c-21.509,0-39.685-18.177-39.685-39.686V202.676c0-21.51,18.176-39.686,39.685-39.686h476.225c21.51,0,39.686,18.176,39.686,39.686
		V530.08z"/>
</g>
</svg>
