<?xml version="1.0" encoding="utf-8"?>
<!-- Generator: Adobe Illustrator 15.1.0, SVG Export Plug-In . SVG Version: 6.00 Build 0)  -->
<!DOCTYPE svg PUBLIC "-//W3C//DTD SVG 1.1//EN" "http://www.w3.org/Graphics/SVG/1.1/DTD/svg11.dtd">
<svg version="1.1" id="Layer_1" xmlns="http://www.w3.org/2000/svg" xmlns:xlink="http://www.w3.org/1999/xlink" x="0px" y="0px"
	 width="64px" height="64px" viewBox="0 0 64 64" enable-background="new 0 0 64 64" xml:space="preserve">
<g>
	<defs>
		<rect id="SVGID_1_" width="64" height="64"/>
	</defs>
	<clipPath id="SVGID_2_">
		<use xlink:href="#SVGID_1_"  overflow="visible"/>
	</clipPath>
	<path clip-path="url(#SVGID_2_)" fill="#4D67A4" d="M64,32c0,17.673-14.326,32-32,32S0,49.673,0,32S14.326,0,32,0S64,14.327,64,32"
		/>
	<path clip-path="url(#SVGID_2_)" fill="#FFFFFF" d="M24.609,28.191h4.376v-4.058c0,0-0.184-2.651,1.829-4.664
		c2.012-2.012,4.721-1.821,8.577-1.486v4.529h-2.851c0,0-1.198-0.024-1.762,0.622c-0.563,0.648-0.502,1.571-0.502,1.798v3.259h4.947
		l-0.636,5.044h-4.337v12.993h-5.247V33.211h-4.396V28.191z"/>
</g>
</svg>
