<?xml version="1.0" encoding="utf-8"?>
<!-- Generator: Adobe Illustrator 15.1.0, SVG Export Plug-In . SVG Version: 6.00 Build 0)  -->
<!DOCTYPE svg PUBLIC "-//W3C//DTD SVG 1.1//EN" "http://www.w3.org/Graphics/SVG/1.1/DTD/svg11.dtd">
<svg version="1.1" id="Layer_1" xmlns="http://www.w3.org/2000/svg" xmlns:xlink="http://www.w3.org/1999/xlink" x="0px" y="0px"
	 width="64px" height="64px" viewBox="0 0 64 64" enable-background="new 0 0 64 64" xml:space="preserve">
<g>
	<defs>
		<rect id="SVGID_1_" width="64" height="64"/>
	</defs>
	<clipPath id="SVGID_2_">
		<use xlink:href="#SVGID_1_"  overflow="visible"/>
	</clipPath>
	<path clip-path="url(#SVGID_2_)" fill="#D84A36" d="M64,32c0,17.673-14.326,32-32,32S0,49.673,0,32S14.326,0,32,0S64,14.327,64,32"
		/>
	<path clip-path="url(#SVGID_2_)" fill="#FFFFFF" d="M32.032,32.264c-0.711-0.776-0.177-1.981,0.358-2.541
		c0.535-0.563,1.498-1.311,1.953-1.74c0.455-0.426,1.553-1.417,1.578-4.385c0,0,0.268-2.676-2.648-4.844h2.301l2.435-1.391H29.77
		c0,0-4.896-0.16-7.249,2.836c-2.355,2.996-2.274,6.742,0.267,8.856c2.541,2.113,5.573,1.523,5.573,1.523s-0.464,0.99-0.384,1.821
		c0.082,0.828,0.99,2.005,1.178,2.273c0,0-5.603-0.027-8.338,2.434c-2.736,2.46-3.031,7.276,2.398,8.935
		c5.432,1.659,12.467-0.134,13.884-5.351c0,0,0.616-2.14-0.454-3.959C35.574,34.912,32.743,33.04,32.032,32.264 M26.018,27.957
		c-1.744-2.348-3.069-6.941,0-8.888c0,0,2.247-1.364,4.233,0.622c1.988,1.987,2.548,5.357,2.187,7.062
		c-0.361,1.706-1.323,2.106-1.744,2.368C30.271,29.381,27.764,30.304,26.018,27.957 M34.645,40.837
		c-0.08,0.923-0.2,2.95-3.511,3.913c-3.31,0.963-8.988-0.622-8.827-4.494c0,0,0.02-1.645,1.063-2.568
		c1.044-0.924,2.568-1.866,7.123-1.926c0,0,1.504,1.123,2.506,1.906C34.002,38.449,34.725,39.914,34.645,40.837"/>
	<polygon clip-path="url(#SVGID_2_)" fill="#FFFFFF" points="42.155,29.776 42.155,26.833 40.39,26.833 40.39,29.776 37.447,29.776 
		37.447,31.542 40.39,31.542 40.39,34.484 42.155,34.484 42.155,31.542 45.098,31.542 45.098,29.776 	"/>
</g>
</svg>
