<?xml version="1.0" encoding="utf-8"?>
<!-- Generator: Adobe Illustrator 15.1.0, SVG Export Plug-In . SVG Version: 6.00 Build 0)  -->
<!DOCTYPE svg PUBLIC "-//W3C//DTD SVG 1.1//EN" "http://www.w3.org/Graphics/SVG/1.1/DTD/svg11.dtd">
<svg version="1.1" id="Layer_1" xmlns="http://www.w3.org/2000/svg" xmlns:xlink="http://www.w3.org/1999/xlink" x="0px" y="0px"
	 width="18.875px" height="14px" viewBox="0 0 18.875 14" enable-background="new 0 0 18.875 14" xml:space="preserve">
<g>
	<defs>
		<rect id="SVGID_1_" width="18.504" height="3"/>
	</defs>
	<clipPath id="SVGID_2_">
		<use xlink:href="#SVGID_1_"  overflow="visible"/>
	</clipPath>
	<path clip-path="url(#SVGID_2_)" fill="#6A6A6A" d="M0.285,2.649c-0.381-0.469-0.38-1.229,0.002-1.697
		C0.47,0.728,0.719,0.602,0.977,0.602h16.584c0.54,0.023,0.962,0.579,0.943,1.241c-0.02,0.63-0.431,1.135-0.942,1.157H0.977
		C0.718,3.001,0.468,2.875,0.285,2.649"/>
</g>
<path fill="#6A6A6A" d="M0.285,7.698c-0.381-0.469-0.38-1.229,0.002-1.696C0.47,5.776,0.719,5.65,0.977,5.65h16.584
	c0.54,0.023,0.962,0.579,0.943,1.241c-0.02,0.63-0.431,1.135-0.942,1.157H0.977C0.718,8.05,0.468,7.924,0.285,7.698"/>
<path fill="#6A6A6A" d="M0.285,13.048c-0.381-0.469-0.38-1.229,0.002-1.696C0.47,11.126,0.719,11,0.977,11h16.584
	c0.54,0.023,0.962,0.579,0.943,1.241c-0.02,0.63-0.431,1.135-0.942,1.157H0.977C0.718,13.399,0.468,13.273,0.285,13.048"/>
</svg>
