<?xml version="1.0" encoding="utf-8"?>
<!-- Generator: Adobe Illustrator 15.1.0, SVG Export Plug-In . SVG Version: 6.00 Build 0)  -->
<!DOCTYPE svg PUBLIC "-//W3C//DTD SVG 1.1//EN" "http://www.w3.org/Graphics/SVG/1.1/DTD/svg11.dtd">
<svg version="1.1" id="Layer_1" xmlns="http://www.w3.org/2000/svg" xmlns:xlink="http://www.w3.org/1999/xlink" x="0px" y="0px"
	 width="459.725px" height="403.2px" viewBox="0 0 459.725 403.2" enable-background="new 0 0 459.725 403.2" xml:space="preserve">
<g>
	<defs>
		<rect id="SVGID_1_" width="459.725" height="403.2"/>
	</defs>
	<clipPath id="SVGID_2_">
		<use xlink:href="#SVGID_1_"  overflow="visible"/>
	</clipPath>
	<path clip-path="url(#SVGID_2_)" fill="#565656" d="M229.944,403.2c-2.8,0-5.6-1.12-7.84-3.36L37.864,217.28
		c-7.84-7.28-14-15.68-19.6-24.64c-30.24-49.839-22.4-113.68,19.6-155.12C61.944,13.44,94.424,0,128.585,0
		c22.96,0,45.92,6.16,65.519,17.92c8.96,5.04,17.361,11.76,25.2,19.6c3.92,3.92,7.281,7.84,10.64,11.76
		c3.36-3.92,6.721-7.84,10.641-11.76c7.839-7.28,16.24-14,25.2-19.6C285.384,6.16,308.344,0,331.304,0
		c34.161,0,66.64,13.44,90.72,37.52c41.441,41.44,49.842,105.281,19.602,155.12c-5.602,8.96-11.76,17.36-19.602,24.64
		L237.785,399.84C235.545,402.08,232.745,403.2,229.944,403.2"/>
	<path clip-path="url(#SVGID_2_)" fill="#E84B4B" d="M128.584,22.4c-28.561,0-54.881,11.2-75.04,30.8
		c-34.16,34.16-40.88,86.8-16.24,127.679c4.479,7.281,10.08,14.561,16.24,20.721l176.399,174.72l176.401-174.72
		c6.16-6.16,11.76-12.88,16.24-20.721c24.64-41.439,18.479-94.079-16.24-127.679c-20.16-19.6-47.04-30.8-75.04-30.8
		c-19.04,0-38.08,5.04-54.321,14.56c-7.279,4.48-14.559,9.52-20.719,16.24c-6.72,6.72-12.321,14-16.8,21.28
		c-2.24,3.359-5.601,5.6-9.521,5.6c-3.92,0-7.839-2.241-9.519-5.6c-4.481-7.84-10.08-15.12-16.8-21.28
		c-6.16-6.16-13.44-11.76-20.72-15.68C166.665,27.44,147.625,22.4,128.584,22.4"/>
</g>
</svg>
