<?xml version="1.0" encoding="utf-8"?>
<!-- Generator: Adobe Illustrator 15.1.0, SVG Export Plug-In . SVG Version: 6.00 Build 0)  -->
<!DOCTYPE svg PUBLIC "-//W3C//DTD SVG 1.1//EN" "http://www.w3.org/Graphics/SVG/1.1/DTD/svg11.dtd">
<svg version="1.1" id="Layer_1" xmlns="http://www.w3.org/2000/svg" xmlns:xlink="http://www.w3.org/1999/xlink" x="0px" y="0px"
	 width="22.723px" height="23.437px" viewBox="0 -10 22.723 23.437" enable-background="new 0 -10 22.723 23.437"
	 xml:space="preserve">
<g>
	<g>
		<defs>
			<rect id="SVGID_1_" x="0" y="-10" width="22.723" height="23.437"/>
		</defs>
		<clipPath id="SVGID_2_">
			<use xlink:href="#SVGID_1_"  overflow="visible"/>
		</clipPath>
		<path clip-path="url(#SVGID_2_)" fill="#6A6A6A" d="M0.35,2.648C-0.118,2.182-0.117,1.42,0.353,0.953
			C0.578,0.728,0.883,0.602,1.2,0.602h20.364c0.663,0.023,1.181,0.579,1.158,1.241C22.698,2.473,22.193,2.979,21.564,3H1.199
			C0.881,3.001,0.575,2.875,0.35,2.648"/>
		<path clip-path="url(#SVGID_2_)" fill="#6A6A6A" d="M12.209,12.813c-0.467,0.469-1.229,0.467-1.695-0.004
			c-0.225-0.225-0.351-0.529-0.351-0.846V-8.402c0.023-0.663,0.579-1.181,1.241-1.158c0.63,0.024,1.136,0.529,1.157,1.158v20.365
			C12.561,12.281,12.435,12.588,12.209,12.813"/>
	</g>
</g>
</svg>
