<?xml version="1.0" encoding="utf-8"?>
<!-- Generator: Adobe Illustrator 15.1.0, SVG Export Plug-In . SVG Version: 6.00 Build 0)  -->
<!DOCTYPE svg PUBLIC "-//W3C//DTD SVG 1.1//EN" "http://www.w3.org/Graphics/SVG/1.1/DTD/svg11.dtd">
<svg version="1.1" id="Layer_1" xmlns="http://www.w3.org/2000/svg" xmlns:xlink="http://www.w3.org/1999/xlink" x="0px" y="0px"
	 width="73.62px" height="83.877px" viewBox="0 0 73.62 83.877" enable-background="new 0 0 73.62 83.877" xml:space="preserve">
<g>
	<defs>
		<rect id="SVGID_1_" width="73.62" height="83.877"/>
	</defs>
	<clipPath id="SVGID_2_">
		<use xlink:href="#SVGID_1_"  overflow="visible"/>
	</clipPath>
	<g clip-path="url(#SVGID_2_)">
		<defs>
			<rect id="SVGID_3_" width="73.62" height="83.877"/>
		</defs>
		<clipPath id="SVGID_4_">
			<use xlink:href="#SVGID_3_"  overflow="visible"/>
		</clipPath>
		<g opacity="0.4" clip-path="url(#SVGID_4_)">
			<g>
				<defs>
					<rect id="SVGID_5_" x="5.5" y="3.5" width="68.12" height="80.376"/>
				</defs>
				<clipPath id="SVGID_6_">
					<use xlink:href="#SVGID_5_"  overflow="visible"/>
				</clipPath>
				<path clip-path="url(#SVGID_6_)" fill="#27AE60" d="M73.348,70.577c-2.4-13-13.7-22.5-26.9-22.5h-13.7
					c-13.5,0-24.9,9.8-27.1,23.1c-1.1,6.7,4.1,12.7,10.8,12.7h46.2c6.8,0,12-6.2,10.8-12.9L73.348,70.577z"/>
				<path clip-path="url(#SVGID_6_)" fill="#27AE60" d="M25.547,35.377c7.8,7.8,20.4,8,28.4,0.4l0.2-0.2c6.9-6.6,7.6-17.3,1.5-24.7
					c-8.3-10-23.7-9.8-31.7,0.4c-5.6,7.2-5,17.5,1.5,24L25.547,35.377z"/>
			</g>
		</g>
		<path clip-path="url(#SVGID_4_)" fill="none" stroke="#6A6A6A" stroke-width="3" stroke-miterlimit="10" d="M69.348,68.577
			c-2.4-13-13.7-22.5-26.9-22.5h-13.7c-13.5,0-24.9,9.8-27.1,23.1c-1.1,6.7,4.1,12.7,10.8,12.7h46.2c6.8,0,12-6.2,10.8-12.9
			L69.348,68.577z"/>
		<path clip-path="url(#SVGID_4_)" fill="none" stroke="#6A6A6A" stroke-width="3" stroke-miterlimit="10" d="M21.547,33.377
			c7.8,7.8,20.4,8,28.4,0.4l0.2-0.2c6.9-6.6,7.6-17.3,1.5-24.7c-8.3-10-23.7-9.8-31.7,0.4c-5.6,7.2-5,17.5,1.5,24L21.547,33.377z"/>
	</g>
</g>
</svg>
