<?xml version="1.0" encoding="utf-8"?>
<!-- Generator: Adobe Illustrator 15.1.0, SVG Export Plug-In . SVG Version: 6.00 Build 0)  -->
<!DOCTYPE svg PUBLIC "-//W3C//DTD SVG 1.1//EN" "http://www.w3.org/Graphics/SVG/1.1/DTD/svg11.dtd">
<svg version="1.1" id="Layer_1" xmlns="http://www.w3.org/2000/svg" xmlns:xlink="http://www.w3.org/1999/xlink" x="0px" y="0px"
	 width="172.82px" height="200.298px" viewBox="0 0 172.82 200.298" enable-background="new 0 0 172.82 200.298"
	 xml:space="preserve">
<g>
	<defs>
		<rect id="SVGID_1_" width="172.82" height="200.298"/>
	</defs>
	<clipPath id="SVGID_2_">
		<use xlink:href="#SVGID_1_"  overflow="visible"/>
	</clipPath>
	<path clip-path="url(#SVGID_2_)" fill="#B2B1B1" d="M172.814,64.925l-0.47-10.261l-9.966-2.479
		c-22.911-5.703-23.439-27.056-23.453-27.889V16.3L91.406,0.795c-3.248-1.06-6.749-1.06-9.997,0L33.888,16.3v7.996
		c-0.003,0.9-0.324,22.133-23.449,27.889l-9.966,2.479L0.001,64.925c-0.039,0.926,1.083,27.967,10.465,55.064
		c8.695,25.108,26.185,54.732,69.644,77.076l6.296,3.232l6.297-3.232c43.462-22.342,60.95-51.966,69.646-77.076
		C171.544,93.438,172.913,67.268,172.814,64.925"/>
	<path clip-path="url(#SVGID_2_)" fill="#FFFFFF" d="M119.752,61.812h-24.54c2.728,1.619,4.818,3.512,6.274,5.684
		c1.455,2.175,2.438,4.577,2.946,7.212h15.319v11.647h-15.39c-1.064,4.62-3.293,8.676-6.688,12.164
		c-3.398,3.491-7.894,6.115-13.484,7.87c1.2,0.647,2.31,1.421,3.326,2.323c1.019,0.898,1.941,1.999,2.773,3.293l26.969,38.059H102.7
		c-2.819,0-4.878-1.11-6.172-3.329l-23.362-33.622c-0.785-1.153-1.641-1.984-2.564-2.494c-0.927-0.51-2.313-0.764-4.16-0.764H54.034
		V98.763h13.448c5.822,0,10.502-1.143,14.038-3.431c3.537-2.288,5.904-5.281,7.106-8.977H53.963V74.708h35.08
		c-1.064-3.93-3.342-6.979-6.83-9.151c-3.49-2.172-8.262-3.26-14.314-3.26H54.034V50.235h65.718V61.812z"/>
</g>
</svg>
