<?xml version="1.0" encoding="utf-8"?>
<!-- Generator: Adobe Illustrator 15.1.0, SVG Export Plug-In . SVG Version: 6.00 Build 0)  -->
<!DOCTYPE svg PUBLIC "-//W3C//DTD SVG 1.1//EN" "http://www.w3.org/Graphics/SVG/1.1/DTD/svg11.dtd">
<svg version="1.1" id="Layer_1" xmlns="http://www.w3.org/2000/svg" xmlns:xlink="http://www.w3.org/1999/xlink" x="0px" y="0px"
	 width="313.5px" height="82.332px" viewBox="0 0 313.5 82.332" enable-background="new 0 0 313.5 82.332" xml:space="preserve">
<g>
	<g>
		<g>
			<path fill="#FFFFFF" d="M11.666,58.212c0,0,7.987,9.19,18.82,9.19c5.908,0,11.16-3.174,11.16-9.19
				c0-13.241-36.547-12.146-36.547-36.33C5.099,9.3,16.042,0,31.033,0C40.114,0,54.12,4.268,54.12,15.318v7.223H41.208v-3.503
				c0-3.611-5.143-6.019-10.286-6.019c-6.564,0-11.379,3.392-11.379,8.317c0,13.239,36.547,10.612,36.547,36.108
				c0,12.365-9.521,22.869-25.824,22.869c-17.179,0-26.699-12.035-26.699-12.035L11.666,58.212z"/>
			<path fill="#FFFFFF" d="M92.527,21.882c15.977,0,24.729,11.709,24.729,26.48c0,1.643-0.328,5.143-0.328,5.143H78.412
				c1.094,9.85,8.315,14.99,16.742,14.99c8.973,0,15.646-6.236,15.646-6.236l5.8,9.63c0,0-8.536,8.425-22.431,8.425
				c-18.493,0-29.983-13.35-29.983-29.216C64.186,33.92,75.785,21.882,92.527,21.882z M103.032,43.878
				c-0.22-6.675-4.814-11.271-10.505-11.271c-7.112,0-12.146,4.268-13.678,11.271H103.032z"/>
			<path fill="#FFFFFF" d="M130.388,15.538c0-1.642-0.876-2.407-2.408-2.407h-4.376V1.313h13.239c5.143,0,7.441,2.297,7.441,7.44
				v56.134c0,1.532,0.875,2.408,2.406,2.408h4.268v11.707h-13.13c-5.253,0-7.44-2.188-7.44-7.44V15.538z"/>
			<path fill="#FFFFFF" d="M162.228,15.538c0-1.642-0.876-2.407-2.407-2.407h-4.376V1.313h13.238c5.144,0,7.442,2.297,7.442,7.44
				v56.134c0,1.532,0.874,2.408,2.406,2.408h4.268v11.707h-13.131c-5.252,0-7.44-2.188-7.44-7.44V15.538z"/>
			<path fill="#FFFFFF" d="M194.397,34.248h-6.893V23.197h6.893v-1.643c0-18.273,14.991-20.681,22.76-20.681
				c2.846,0,4.705,0.328,4.705,0.328V13.02c0,0-1.313-0.217-3.173-0.217c-3.939,0-10.395,1.204-10.395,9.3v1.095h29.652
				c5.143,0,7.441,2.296,7.441,7.439v34.25c0,1.532,0.876,2.408,2.407,2.408h4.268v11.707h-13.131c-5.253,0-7.441-2.188-7.441-7.44
				V36.656c0-1.532-0.876-2.408-2.407-2.408h-20.789v44.754h-13.897V34.248z M232.147,1.313h12.037v12.802h-12.037V1.313z"/>
			<path fill="#FFFFFF" d="M286.531,21.882c15.975,0,24.729,11.709,24.729,26.48c0,1.643-0.328,5.143-0.328,5.143h-38.516
				c1.094,9.85,8.314,14.99,16.742,14.99c8.971,0,15.646-6.236,15.646-6.236l5.799,9.63c0,0-8.535,8.425-22.432,8.425
				c-18.492,0-29.981-13.35-29.981-29.216C258.191,33.92,269.789,21.882,286.531,21.882z M297.035,43.878
				c-0.219-6.675-4.814-11.271-10.504-11.271c-7.113,0-12.146,4.268-13.678,11.271H297.035z"/>
		</g>
	</g>
</g>
</svg>
