<?xml version="1.0" encoding="utf-8"?>
<!-- Generator: Adobe Illustrator 15.1.0, SVG Export Plug-In . SVG Version: 6.00 Build 0)  -->
<!DOCTYPE svg PUBLIC "-//W3C//DTD SVG 1.1//EN" "http://www.w3.org/Graphics/SVG/1.1/DTD/svg11.dtd">
<svg version="1.1" id="Layer_1" xmlns="http://www.w3.org/2000/svg" xmlns:xlink="http://www.w3.org/1999/xlink" x="0px" y="0px"
	 width="64px" height="64px" viewBox="0 0 64 64" enable-background="new 0 0 64 64" xml:space="preserve">
<g>
	<defs>
		<rect id="SVGID_1_" y="0.545" width="64" height="64"/>
	</defs>
	<clipPath id="SVGID_2_">
		<use xlink:href="#SVGID_1_"  overflow="visible"/>
	</clipPath>
	<path clip-path="url(#SVGID_2_)" fill="#FFFFFF" d="M64,32.545c0,17.673-14.327,32-32,32s-32-14.327-32-32s14.327-32,32-32
		S64,14.872,64,32.545"/>
</g>
<g>
	<path d="M40.791,36.828c-1.729,0-3.271,0.826-4.258,2.099l-8.261-4.614c0.193-0.556,0.3-1.154,0.3-1.772
		c0-0.625-0.106-1.219-0.306-1.78l8.254-4.607c0.979,1.279,2.527,2.11,4.264,2.11c2.96,0,5.376-2.41,5.376-5.376
		s-2.41-5.376-5.376-5.376s-5.375,2.41-5.375,5.376c0,0.625,0.105,1.224,0.306,1.779l-8.248,4.608
		c-0.98-1.287-2.529-2.111-4.264-2.111c-2.959,0-5.376,2.41-5.376,5.377c0,2.966,2.417,5.375,5.382,5.375
		c1.736,0,3.285-0.83,4.271-2.116l8.255,4.614c-0.2,0.562-0.313,1.167-0.313,1.792c0,2.959,2.409,5.375,5.375,5.375
		s5.376-2.41,5.376-5.375C46.173,39.238,43.757,36.828,40.791,36.828z M40.791,19.203c2.035,0,3.689,1.654,3.689,3.69
		c0,2.035-1.654,3.689-3.689,3.689c-2.036,0-3.69-1.654-3.69-3.689C37.101,20.857,38.762,19.203,40.791,19.203z M23.208,36.229
		c-2.036,0-3.69-1.655-3.69-3.689c0-2.036,1.654-3.69,3.69-3.69c2.035,0,3.69,1.654,3.69,3.69
		C26.899,34.574,25.238,36.229,23.208,36.229z M40.791,45.888c-2.036,0-3.69-1.653-3.69-3.689c0-2.034,1.654-3.69,3.69-3.69
		c2.035,0,3.689,1.656,3.689,3.69C44.48,44.234,42.826,45.888,40.791,45.888z"/>
</g>
</svg>
