<?xml version="1.0" encoding="utf-8"?>
<!-- Generator: Adobe Illustrator 15.1.0, SVG Export Plug-In . SVG Version: 6.00 Build 0)  -->
<!DOCTYPE svg PUBLIC "-//W3C//DTD SVG 1.1//EN" "http://www.w3.org/Graphics/SVG/1.1/DTD/svg11.dtd">
<svg version="1.1" id="Layer_1" xmlns="http://www.w3.org/2000/svg" xmlns:xlink="http://www.w3.org/1999/xlink" x="0px" y="0px"
	 width="64px" height="64px" viewBox="0 0 64 64" enable-background="new 0 0 64 64" xml:space="preserve">
<g>
	<defs>
		<rect id="SVGID_1_" width="64" height="64"/>
	</defs>
	<clipPath id="SVGID_2_">
		<use xlink:href="#SVGID_1_"  overflow="visible"/>
	</clipPath>
	<path clip-path="url(#SVGID_2_)" fill="#26A7DF" d="M64,32c0,17.673-14.327,32-32,32S0,49.673,0,32S14.327,0,32,0S64,14.327,64,32"
		/>
	<path clip-path="url(#SVGID_2_)" fill="#FFFFFF" d="M19.496,21.267c0,0,4.459,5.911,12.211,6.32c0,0-1.05-3.491,2.168-6.162
		c3.219-2.675,7.2-0.41,7.963,0.599c0,0,2.265-0.355,3.845-1.418c0,0-0.517,2.041-2.427,3.27c0,0,2.237-0.297,3.273-0.898
		c0,0-1.091,1.746-2.973,3.081c0,0,0.79,7.377-5.55,13.473c-6.341,6.096-16.773,4.827-20.535,1.636c0,0,5.112,0.574,8.712-2.495
		c0,0-4.254-0.081-5.48-4.05c0,0,2.126,0.164,2.495-0.245c0,0-4.582-1.104-4.623-5.891c0,0,1.391,0.696,2.658,0.737
		C21.234,29.224,16.817,26.033,19.496,21.267"/>
</g>
</svg>
